REM MD5 813d1d4b673c67e3a492f7d3ab3b7f23
FILE "Time Commando (USA).bin" BINARY
  TRACK 01 MODE2/2352
    INDEX 01 00:00:00
  TRACK 02 AUDIO
    INDEX 00 44:43:41
    INDEX 01 44:45:41
  TRACK 03 AUDIO
    INDEX 00 47:52:63
    INDEX 01 47:54:63
REM LEADOUT 51:04:06
